{"title":"The Man Who Never Was(1956)MP-4[DaScubaDude]","uid":12351159,"size":1034898630,"categoryP":"video","categoryS":"movies","magnet":"?xt=urn:btih:ec47efe5d062aaa3fcc2b126258e1acc2cf27d73&amp;dn=The+Man+Who+Never+Was%281956%29MP-4%5BDaScubaDude%5D&amp;tr=udp%3A%2F%2Ftracker.openbittorrent.com%3A80&amp;tr=udp%3A%2F%2Fopen.demonii.com%3A1337&amp;tr=udp%3A%2F%2Ftracker.coppersurfer.tk%3A6969&amp;tr=udp%3A%2F%2Fexodus.desync.com%3A6969","seeders":2,"leechers":0,"uploader":"dascuba","files":1,"time":1441427630,"description":"The Man Who Never Was (1956)\nApproved  |  103 min  |  War, Drama  |  9 May 1956 (France)\n7.5 Your rating:   -/10   Ratings: 7.5/10 from 2,941 users   \nReviews: 56 user | 8 critic\nTrue story of a British attempt to trick the enemy into weakening Sicily's defenses before the 1943 attack, using a dead man with faked papers.\n\nDirector: Ronald Neame\nWriters: Ewen Montagu (book) (as The Hon. Ewen Montagu C.B.E. D.L. Q.C.) , Nigel Balchin (screenplay)\nStars: Clifton Webb, Gloria Grahame, Robert Flemyng \n\nGeneral\nComplete name                         : C:MAN WHO NEVER WASMAN WHO NEVER WAS.mp4\nFormat                                   : MPEG-4\nFormat profile                           : Base Media\nCodec ID                                 : isom\nFile size                                : 987 MiB\nDuration                                 : 1h 43mn\nOverall bit rate                         : 1 339 Kbps\nMovie name                               : MANWHONEVER43\nGenre                                    : Spy_Film\nWriting application                      : Lavf54.6.100\n\nVideo\nID                                       : 1\nFormat                                   : AVC\nFormat/Info                              : Advanced Video Codec\nFormat profile                           : Baseline@L3\nFormat settings, CABAC                   : No\nFormat settings, ReFrames                : 6 frames\nFormat settings, GOP                     : M=1, N=60\nCodec ID                                 : avc1\nCodec ID/Info                            : Advanced Video Coding\nDuration                                 : 1h 43mn\nBit rate                                 : 1 205 Kbps\nWidth                                    : 720 pixels\nHeight                                   : 540 pixels\nDisplay aspect ratio                     : 4:3\nFrame rate mode                          : Constant\nFrame rate                               : 29.970 fps\nColor space                              : YUV\nChroma subsampling                       : 4:2:0\nBit depth                                : 8 bits\nScan type                                : Progressive\nBits/(Pixel*Frame)                       : 0.103\nStream size                              : 888 MiB (90%)\n\nAudio\nID                                       : 2\nFormat                                   : AAC\nFormat/Info                              : Advanced Audio Codec\nFormat profile                           : LC\nCodec ID                                 : 40\nDuration                                 : 1h 43mn\nBit rate mode                            : Constant\nBit rate                                 : 128 Kbps\nChannel(s)                               : 2 channels\nChannel positions                        : Front: L R\nSampling rate                            : 44.1 KHz\nCompression mode                         : Lossy\nStream size                              : 94.3 MiB (10%)","torrent":{"xt":"urn:btih:ec47efe5d062aaa3fcc2b126258e1acc2cf27d73","amp;dn":"The+Man+Who+Never+Was%281956%29MP-4%5BDaScubaDude%5D","amp;tr":["udp%3A%2F%2Ftracker.openbittorrent.com%3A80","udp%3A%2F%2Fopen.demonii.com%3A1337","udp%3A%2F%2Ftracker.coppersurfer.tk%3A6969","udp%3A%2F%2Fexodus.desync.com%3A6969"],"infoHash":"ec47efe5d062aaa3fcc2b126258e1acc2cf27d73","infoHashBuffer":{"type":"Buffer","data":[236,71,239,229,208,98,170,163,252,194,177,38,37,142,26,204,44,242,125,115]},"announce":[],"urlList":[]}}